<?xml version="1.0" encoding="utf-8"?>
<!-- Generator: Adobe Illustrator 21.0.2, SVG Export Plug-In . SVG Version: 6.00 Build 0)  -->
<svg version="1.1" id="Layer_1" xmlns="http://www.w3.org/2000/svg" xmlns:xlink="http://www.w3.org/1999/xlink" x="0px" y="0px"
	 viewBox="0 0 158.2 156.2" style="enable-background:new 0 0 158.2 156.2;" xml:space="preserve">
<style type="text/css">
	.st0{fill:#7AC142;}
	.st1{fill:none;}
	.st2{font-family:'MyriadPro-Regular';}
	.st3{font-size:12px;}
</style>
<path class="st0" d="M74.2,31.5c0-14.4-11.4-26.1-25.4-26C34.1,5.6,22.6,17,22.6,31.4c0,14.3,11.5,25.8,25.8,25.9
	C62.6,57.3,74.2,45.8,74.2,31.5L74.2,31.5L74.2,31.5z M101.1,88.1c-0.2,14.3,11.3,26,25.5,26.1c14.3,0.2,26-11.3,26.1-25.5
	c0.2-14.3-11.6-26.4-25.8-26.3C112.7,62.4,101.2,73.9,101.1,88.1z M134.1,31.7c0.1-14.3-11.4-25.9-25.7-26s-25.9,11.4-26,25.7l0,0
	c0.2,14.3,11.9,25.7,26.1,25.5C122.5,56.7,133.7,45.6,134.1,31.7L134.1,31.7z M55.8,88.2c0-14-11.9-25.9-25.8-25.8
	C15.7,62.4,4.2,74,4.3,88.3c0,14.3,11.6,25.8,25.9,25.8C44.2,114.2,55.8,102.4,55.8,88.2z M104.2,123.8c0.3-14-10.8-25.6-24.8-25.8
	c-0.4,0-0.7,0-1.1,0c-14.6,0.1-25.5,11.1-25.4,25.7c0,14.2,11.4,25.7,25.6,25.8S104.2,137.9,104.2,123.8L104.2,123.8z"/>
<path class="st0" d="M74.2,31.5c0,14.3-11.6,25.8-25.9,25.8S22.5,45.7,22.5,31.4C22.5,17,34.1,5.6,48.7,5.5
	C62.8,5.4,74.2,17.1,74.2,31.5z"/>
<path class="st0" d="M101.1,88.1c0.1-14.2,11.6-25.7,25.8-25.7s26,12,25.8,26.3s-11.9,25.7-26.1,25.5
	C112.4,114.1,100.9,102.4,101.1,88.1L101.1,88.1z"/>
<path class="st0" d="M134.1,31.7c-0.1,14.3-11.7,25.8-26,25.7c-14.3-0.1-25.8-11.7-25.7-26C82.5,17.2,94,5.7,108.2,5.7
	c14.1-0.2,25.6,11,25.9,25.1C134.1,31,134.1,31.3,134.1,31.7z"/>
<path class="st0" d="M55.8,88.2c0,14.2-11.6,25.9-25.7,25.9c-14.3,0-25.9-11.5-25.9-25.8S15.7,62.4,30,62.4
	C43.9,62.3,55.8,74.3,55.8,88.2z"/>
<path class="st0" d="M104.2,123.8c0,14.2-11.6,25.6-25.8,25.6s-25.6-11.6-25.6-25.8l0,0c0-14.6,10.9-25.6,25.4-25.7
	c14-0.3,25.6,10.8,25.9,24.8C104.2,123.1,104.2,123.4,104.2,123.8z"/>
<rect x="115.2" y="127.3" class="st1" width="20.9" height="14.6"/>
<text transform="matrix(1 0 0 1 115.224 135.8666)" class="st0 st2 st3">TM</text>
</svg>
