<?xml version="1.0" encoding="utf-8"?>
<!-- Generator: Adobe Illustrator 21.0.2, SVG Export Plug-In . SVG Version: 6.00 Build 0)  -->
<svg version="1.1" id="Layer_1" xmlns="http://www.w3.org/2000/svg" xmlns:xlink="http://www.w3.org/1999/xlink" x="0px" y="0px"
	 viewBox="0 0 772.9 195.2" style="enable-background:new 0 0 772.9 195.2;" xml:space="preserve">
<style type="text/css">
	.st0{fill:#339966;}
	.st1{fill:none;}
	.st2{fill:#7AC142;}
</style>
<path class="st0" d="M416.1,40.8c-5.9,0.1-10.7,4.9-10.7,10.9c0.3,5.9,5.2,10.6,11.1,10.5c5.8,0,10.5-4.8,10.5-10.6
	c0-0.1,0-0.3,0-0.4C426.9,44.9,422.5,40.7,416.1,40.8z M424.8,76.2c0-1.4-0.2-2.9-0.3-4h-17.2v55.3c0,11.7,0,11.5,11.9,11.7
	c4.4,0.1,5.7-1.2,5.7-5.6C424.7,114.5,424.9,95.3,424.8,76.2L424.8,76.2z M733.4,70.8c-10.8-2.9-21.3-1.9-31.7,2.1
	c-3.4,1.3-4.7,3.3-4.7,7.1c0.2,15.5,0.1,30.9,0.1,46.4c0,13,0,12.8,12.9,12.8c3.9,0,4.7-1.4,4.7-5c-0.2-13.8,0.1-27.6-0.2-41.4
	c-0.1-4.4,1.2-6.8,5.6-6.7c5.9,0.1,11.8,0.5,18.4,0.8c-0.2-3.1-0.1-6.2,0.1-9.3C739.2,73.4,737,71.8,733.4,70.8L733.4,70.8z
	 M608.3,124.3c-9.3,2.2-14.6-1.9-14.7-11.3c0-6.2-0.1-12.3,0-18.5c0.2-10.9-2.2-10,10.1-10.1c11.5-0.1,9.7,1.6,10-10.2
	c0.1-3.2-1-4.5-4.3-4.4c-5.1,0.2-10.2,0.1-15.5,0.1c-0.1-2-0.3-3.3-0.3-4.6c-0.2-13.7-0.2-13.8-14.1-12.2c-1.3,0.1-3.4,2.3-3.4,3.5
	c-0.1,22.3-0.1,44.7,0.3,67c0.2,8.2,6.3,15.1,14.4,16.3c5.7,0.8,11.5,0.8,17.3,0c7.3-1,7.6-2,7.6-9.5v-8.2
	C612.7,123,610.5,123.8,608.3,124.3z M548.7,98.8c-2.9-0.9-5.8-1.4-8.7-2.2c-6.6-1.8-9.1-4.4-8.3-8.7c0.7-3.9,5.7-6.2,11.5-5.5
	c0.5,0.1,1,0.2,1.5,0.3c5.2,1.6,10.3,3.3,15.9,5c-0.1-3.2-0.1-6.4,0.1-9.5c0.4-3.9-1.5-5.6-4.8-6.9c-7.4-3-15-3.2-22.6-2.1
	c-8.1,1.2-15.2,5-17.7,13.4c-4,13.9,0.2,24.4,16.5,28.4c3.4,0.8,6.8,1.4,10.1,2.5s5.5,3.2,5.2,7c-0.2,4-3.2,5.5-6.4,5.9
	c-3.1,0.5-6.3,0.4-9.4-0.3c-5.4-1.4-10.6-3.5-16.3-5.5c0,3.4,0.2,6.8-0.1,10c-0.3,3.8,1.2,5.8,4.7,7c8.7,3.1,18,3.8,27,2.1
	c10.9-2,17.3-9.1,17.7-18.6C565.2,108.7,560.7,102.4,548.7,98.8L548.7,98.8z M502.5,94.9c-0.7-18.2-9.2-26.5-27.5-26.1
	c-10,0.2-20,2.6-30,4c-3.8,0.5-5.1,2.6-5,6.5c0.3,9,0.1,18,0.1,27v20.5c0,12.6,0,12.4,12.8,12.4c3.7,0,4.9-1.1,4.8-4.9
	c-0.2-12.3-0.1-24.7-0.1-37c0-11.9,1-12.9,13.1-13.1c9.1-0.1,13.6,4.2,13.6,13.2c0.1,12.3,0.1,24.6,0,37c0,3.4,0.8,5,4.5,4.7
	c3.3-0.2,6.7-0.2,10,0c2.8,0.1,3.8-1,3.8-3.8C502.6,121.9,503,108.4,502.5,94.9L502.5,94.9z M358.8,68.8c-21,0-36.3,14.9-36.4,35.4
	c-0.1,21.5,15,36.9,36.1,36.9c20.9,0,36.2-15.1,36.3-35.6C394.8,83.6,380.3,68.9,358.8,68.8z M376,111.5
	c-2.6,10.6-12.7,16.5-23,13.4c-8.1-2.4-12.5-9.7-12.5-20.5c0-14.1,9.5-22.8,22-20.3C373.2,86.3,379.2,98.6,376,111.5z"/>
<path class="st1" d="M376,111.5c-2.6,10.6-12.7,16.5-23,13.4c-8.1-2.4-12.5-9.7-12.5-20.5c0-14.1,9.5-22.8,22-20.3
	C373.2,86.3,379.2,98.6,376,111.5z"/>
<path class="st0" d="M682.5,91.9c-0.2-12.2-5-19.6-14.6-22.6c-11-3.4-22-2.6-32.7,1.8c-1.5,0.8-2.6,2.2-3,3.9
	c-0.4,3.6-0.1,7.3-0.1,11.8c2.4-0.9,3.9-1.8,5.5-2c6-0.8,12.1-2.1,18.1-1.9s7.8,3.4,8.9,9.5c0.7,3.9-0.5,5-4.3,5.1
	c-6.3,0.2-12.7,0.3-18.8,1.7c-10.7,2.5-16.3,9.8-16.1,19.3c0.2,10,6.1,16.9,17,19.2c12.2,2.5,24.5,1.5,36.7-0.6
	c2.7-0.5,3.5-1.7,3.5-4.3C682.5,119.2,682.7,105.5,682.5,91.9z M655.3,126.5c-2.4,0-5.5,0-7.1-1.4c-2.3-1.9-4.7-5.1-4.8-7.8
	c-0.1-2.4,2.5-6.2,4.7-7.1c4.2-1.6,9-1.6,13.6-1.9c0.8,0,2.3,1.9,2.6,3.2c0.4,1.9,0.1,4,0.1,6.6
	C664.1,126.6,666.3,126.7,655.3,126.5z"/>
<path class="st0" d="M313.7,120.8c0,2.3,0,4.2,0,6c0,10.2-0.6,11.8-10.5,12.9c-7.4,0.8-15.5,0.9-22.6-1.1
	c-18.6-5.4-25.2-22.6-22.8-39.4c3.8-27.3,29.3-34.9,50.1-28.4c4.2,1.3,6.4,3.6,5.8,8.3c-0.4,3.2-0.1,6.6-0.1,10.4
	c-12.4-6.5-24.5-9.4-34.6,2.6c-5.7,6.7-5,18.8,0.4,25.7C286,126.3,296.4,127.3,313.7,120.8z"/>
<path class="st2" d="M130.8,56.8c0-14.4-11.4-26.1-25.4-26c-14.7,0.1-26.2,11.5-26.2,25.9c0,14.3,11.5,25.8,25.8,25.9
	C119.2,82.6,130.8,71.1,130.8,56.8L130.8,56.8L130.8,56.8z M157.7,113.4c-0.2,14.3,11.3,26,25.5,26.1c14.3,0.2,26-11.3,26.1-25.5
	c0.2-14.3-11.6-26.4-25.8-26.3C169.3,87.7,157.8,99.2,157.7,113.4z M190.7,57c0.1-14.3-11.4-25.9-25.7-26s-25.9,11.4-26,25.7l0,0
	c0.2,14.3,11.9,25.7,26.1,25.5C179.1,82,190.3,70.9,190.7,57L190.7,57z M112.4,113.5c0-14-11.9-25.9-25.8-25.8
	c-14.3,0-25.8,11.6-25.7,25.9c0,14.3,11.6,25.8,25.9,25.8C100.8,139.5,112.4,127.7,112.4,113.5z M160.8,149.1
	c0.3-14-10.8-25.6-24.8-25.8c-0.4,0-0.7,0-1.1,0c-14.6,0.1-25.5,11.1-25.4,25.7c0,14.2,11.4,25.7,25.6,25.8S160.8,163.2,160.8,149.1
	L160.8,149.1z"/>
<path class="st2" d="M130.8,56.8c0,14.3-11.6,25.8-25.9,25.8S79.1,71,79.1,56.7c0-14.4,11.6-25.8,26.2-25.9
	C119.4,30.7,130.8,42.4,130.8,56.8z"/>
<path class="st2" d="M157.7,113.4c0.1-14.2,11.6-25.7,25.8-25.7s26,12,25.8,26.3s-11.9,25.7-26.1,25.5
	C169,139.4,157.5,127.7,157.7,113.4L157.7,113.4z"/>
<path class="st2" d="M190.7,57c-0.1,14.3-11.7,25.8-26,25.7c-14.3-0.1-25.8-11.7-25.7-26c0.1-14.2,11.6-25.7,25.8-25.7
	c14.1-0.2,25.6,11,25.9,25.1C190.7,56.3,190.7,56.6,190.7,57z"/>
<path class="st2" d="M112.4,113.5c0,14.2-11.6,25.9-25.7,25.9c-14.3,0-25.9-11.5-25.9-25.8s11.5-25.9,25.8-25.9
	C100.5,87.6,112.4,99.6,112.4,113.5z"/>
<path class="st2" d="M160.8,149.1c0,14.2-11.6,25.6-25.8,25.6s-25.6-11.6-25.6-25.8l0,0c0-14.6,10.9-25.6,25.4-25.7
	c14-0.3,25.6,10.8,25.9,24.8C160.8,148.4,160.8,148.7,160.8,149.1z"/>
</svg>
